# xmcd
#
# Track frame offsets:
#	150
#	16915
#	36616
#	49823
#	68017
#	80513
#	97045
#	115644
#	130947
#	146202
#	163984
#
# Disc length: 2613 seconds
#
# Revision: 1
# Processed by: cddbd v1.5.2PL0 Copyright (c) Steve Scherf et al.
# Submitted via: audiograbber 1.83.01
#
DISCID=9c0a330b
DTITLE=vari - the best of electric blues
DYEAR=1999
DGENRE=electric
TTITLE0=f.moore - caledonia
TTITLE1=morganfield - got my mojo working
TTITLE2=w.turner,l.camun - walking to my baby
TTITLE3=chatman,slim - everyday i have the blues
TTITLE4=r.newman - guilty
TTITLE5=big joe turner - flip flop fly
TTITLE6=j. lee hooker - boom boom
TTITLE7=s.ray vaughan - love me darling
TTITLE8=farrington,gibellini,pasetto - demetra blues
TTITLE9=morganfield - baby please don't go
TTITLE10=farrington,gibellini,pasetto - onavlis funk
EXTD=
EXTT0=
EXTT1=
EXTT2=
EXTT3=
EXTT4=
EXTT5=
EXTT6=
EXTT7=
EXTT8=
EXTT9=
EXTT10=
PLAYORDER=
